<svg xmlns="http://www.w3.org/2000/svg" aria-hidden="true" style="position:absolute;width:0;height:0;overflow:hidden"><defs><symbol id="icon-close-modal" viewBox="0 0 32 32"><path d="M32 3.223 28.777 0 16 12.777 3.223 0 0 3.223 12.777 16 0 28.777 3.223 32 16 19.223 28.777 32 32 28.777 19.223 16 32 3.223z"/></symbol><symbol id="icon-person" viewBox="0 0 32 32"><path d="M16 16c2.947 0 5.333-2.387 5.333-5.333S18.946 5.334 16 5.334c-2.947 0-5.333 2.387-5.333 5.333S13.054 16 16 16zm0 2.667c-3.56 0-10.667 1.787-10.667 5.333v1.333c0 .733.6 1.333 1.333 1.333h18.667c.733 0 1.333-.6 1.333-1.333V24c0-3.547-7.107-5.333-10.667-5.333z"/></symbol><symbol id="icon-check-mark" viewBox="0 0 40 32"><path d="M33.843 1.957c.657-.578 1.532-.897 2.44-.891s1.777.338 2.425.925 1.023 1.383 1.047 2.221a3.09 3.09 0 0 1-.919 2.269l-18.62 21.495c-.32.318-.707.574-1.136.751s-.893.273-1.364.281c-.47.008-.938-.072-1.374-.234s-.833-.405-1.166-.712L2.828 16.664c-.344-.296-.62-.652-.811-1.049s-.294-.824-.302-1.258.078-.865.254-1.267c.176-.402.438-.768.77-1.075s.728-.549 1.164-.711a3.786 3.786 0 0 1 2.736.044c.429.177.816.431 1.136.749l9.772 9.016L33.754 2.051a1.19 1.19 0 0 1 .093-.095h-.005z"/></symbol></defs></svg>